#N canvas 246 0 1079 795 10;
#N canvas 154 82 1107 531 arduino 0;
#X floatatom 479 161 5 0 0 3 a0 - -;
#X floatatom 517 161 5 0 0 3 a1 - -;
#X floatatom 555 161 5 0 0 3 a2 - -;
#X floatatom 594 161 5 0 0 3 a3 - -;
#X floatatom 632 161 5 0 0 3 a4 - -;
#X floatatom 670 162 5 0 0 3 a5 - -;
#X text 434 356 <- argument sets port #;
#X msg 298 405 info;
#X msg 298 425 version;
#X floatatom 708 163 5 0 0 3 a6 - -;
#X floatatom 747 164 5 0 0 3 a7 - -;
#X obj 480 45 route analog;
#X obj 479 101 route 0 1 2 3 4 5 6 7;
#N canvas 867 22 499 396 display 0;
#X obj 6 7 inlet;
#X obj 6 50 outlet;
#X obj 54 50 inlet;
#X obj 54 71 mapping/resample 100;
#X obj 54 93 outlet;
#X obj 103 93 inlet;
#X obj 103 114 mapping/resample 100;
#X obj 103 136 outlet;
#X obj 151 136 inlet;
#X obj 151 157 mapping/resample 100;
#X obj 151 179 outlet;
#X obj 200 179 inlet;
#X obj 200 200 mapping/resample 100;
#X obj 200 222 outlet;
#X obj 247 222 inlet;
#X obj 247 243 mapping/resample 100;
#X obj 247 265 outlet;
#X obj 295 265 inlet;
#X obj 295 286 mapping/resample 100;
#X obj 295 308 outlet;
#X obj 345 308 inlet;
#X obj 345 329 mapping/resample 100;
#X obj 345 351 outlet;
#X obj 60 290 receive ARDUINO_TEST_RESET;
#X obj 6 28 mapping/resample 100;
#X connect 0 0 24 0;
#X connect 2 0 3 0;
#X connect 3 0 4 0;
#X connect 5 0 6 0;
#X connect 6 0 7 0;
#X connect 8 0 9 0;
#X connect 9 0 10 0;
#X connect 11 0 12 0;
#X connect 12 0 13 0;
#X connect 14 0 15 0;
#X connect 15 0 16 0;
#X connect 17 0 18 0;
#X connect 18 0 19 0;
#X connect 20 0 21 0;
#X connect 21 0 22 0;
#X connect 23 0 21 0;
#X connect 23 0 18 0;
#X connect 23 0 15 0;
#X connect 23 0 12 0;
#X connect 23 0 9 0;
#X connect 23 0 6 0;
#X connect 23 0 3 0;
#X connect 23 0 24 0;
#X connect 24 0 1 0;
#X restore 478 129 pd display values without pegging the CPU;
#X text 25 88 (C) Copyright 2006 Free Software Foundation;
#N canvas 0 22 451 224 ver 0;
#X obj 23 7 inlet;
#X obj 250 100 cnv 15 145 17 empty \$0-version_cnv Firmata-2.1 4 10
0 12 -203904 -1 0;
#X obj 23 157 send \$0-version_cnv;
#X msg 23 132 label \$1;
#X obj 48 103 symbol;
#X obj 38 77 loadbang;
#X msg 96 78 bang;
#X obj 309 163 outlet;
#X obj 23 52 zexy/makesymbol Firmata-%s.%s;
#X obj 23 29 route version bang;
#X connect 0 0 9 0;
#X connect 3 0 2 0;
#X connect 4 0 3 0;
#X connect 5 0 4 0;
#X connect 6 0 4 0;
#X connect 8 0 3 0;
#X connect 9 0 8 0;
#X connect 9 1 7 0;
#X connect 9 1 6 0;
#X connect 9 2 7 0;
#X coords 0 -1 1 1 145 17 1 250 100;
#X restore 423 405 pd ver;
#N canvas 649 518 411 212 firmware 0;
#X obj 123 2 inlet;
#X obj 250 100 cnv 15 145 17 empty \$0-firmware_cnv StandardFirmata-2.1
4 10 0 12 -232576 -66577 0;
#X msg 123 156 label \$1;
#X obj 148 127 symbol;
#X obj 138 101 loadbang;
#X msg 196 102 bang;
#X obj 123 181 send \$0-firmware_cnv;
#X obj 123 24 route firmware;
#X obj 18 181 print Firmware;
#X obj 123 49 list;
#X obj 123 80 zexy/makesymbol %s-%s.%s;
#X obj 18 151 list trim;
#X obj 204 45 route bang;
#X connect 0 0 7 0;
#X connect 2 0 6 0;
#X connect 3 0 2 0;
#X connect 4 0 3 0;
#X connect 5 0 3 0;
#X connect 7 0 9 0;
#X connect 7 1 12 0;
#X connect 9 0 10 0;
#X connect 10 0 2 0;
#X connect 10 0 11 0;
#X connect 11 0 8 0;
#X connect 12 0 5 0;
#X coords 0 -1 1 1 145 17 1 250 100;
#X restore 423 425 pd firmware;
#X msg 298 465 devices;
#X msg 298 445 firmware;
#X text 31 102 released under the GNU GPL v2 or later;
#X text 27 39 The [arduino] object works with the Firmata firmware
for Arduino (also known as Pduino firmware).;
#N canvas 623 75 404 287 device 0;
#X obj 35 60 inlet;
#X obj 35 118 route open port ports;
#X obj 35 169 tgl 15 0 empty empty open -3 20 0 10 -262144 -1 -1 0
1;
#X floatatom 76 170 5 0 0 3 port - -;
#X obj 117 170 print comport_ports;
#X obj 252 170 outlet;
#X obj 235 74 receive ARDUINO_TEST_RESET;
#X obj 235 97 bang;
#X connect 0 0 1 0;
#X connect 1 0 2 0;
#X connect 1 1 3 0;
#X connect 1 2 4 0;
#X connect 1 3 5 0;
#X connect 6 0 7 0;
#X connect 7 0 5 0;
#X restore 423 383 pd device info;
#X text 515 383 <- open to see info;
#N canvas 0 22 450 300 (subpatch) 0;
#X coords 0 1 100 -1 300 125 1;
#X restore 465 95 graph;
#X text 464 76 analog input readings;
#X msg 830 89 open 4;
#X msg 906 81 pinMode 2 1;
#X obj 247 291 tgl 15 0 empty empty empty 17 7 0 10 -262144 -1 -1 0
1;
#X msg 247 313 digital 2 \$1;
#X obj 830 22 loadbang;
#X obj 247 268 inlet;
#X obj 487 316 outlet;
#X obj 555 317 outlet;
#X obj 620 316 outlet;
#X obj 684 318 outlet;
#X msg 931 177 analogIns 0 1;
#X msg 941 197 analogIns 1 1;
#X msg 951 217 analogIns 2 1;
#X msg 961 237 analogIns 3 1;
#X obj 372 312 r arduino;
#X obj 1002 59 delay 4000;
#X obj 372 356 arduino 4;
#X text 187 290 Vibration;
#X obj 586 37 print;
#X obj 931 274 s arduino;
#X floatatom 493 257 5 0 0 0 - - -;
#X obj 479 231 * 200;
#X connect 0 0 46 0;
#X connect 1 0 32 0;
#X connect 2 0 33 0;
#X connect 3 0 34 0;
#X connect 7 0 41 0;
#X connect 8 0 41 0;
#X connect 11 0 12 0;
#X connect 12 0 13 0;
#X connect 12 1 13 1;
#X connect 12 2 13 2;
#X connect 12 3 13 3;
#X connect 12 4 13 4;
#X connect 12 5 13 5;
#X connect 12 6 13 6;
#X connect 12 7 13 7;
#X connect 13 0 0 0;
#X connect 13 1 1 0;
#X connect 13 2 2 0;
#X connect 13 3 3 0;
#X connect 13 4 4 0;
#X connect 13 5 5 0;
#X connect 13 6 9 0;
#X connect 13 7 10 0;
#X connect 15 0 16 0;
#X connect 17 0 41 0;
#X connect 18 0 41 0;
#X connect 21 0 15 0;
#X connect 25 0 41 0;
#X connect 26 0 41 0;
#X connect 27 0 28 0;
#X connect 28 0 41 0;
#X connect 29 0 40 0;
#X connect 29 0 25 0;
#X connect 29 0 0 0;
#X connect 29 0 1 0;
#X connect 29 0 2 0;
#X connect 29 0 3 0;
#X connect 30 0 27 0;
#X connect 35 0 44 0;
#X connect 36 0 44 0;
#X connect 37 0 44 0;
#X connect 38 0 44 0;
#X connect 39 0 41 0;
#X connect 40 0 26 0;
#X connect 40 0 35 0;
#X connect 40 0 36 0;
#X connect 40 0 37 0;
#X connect 40 0 38 0;
#X connect 41 0 11 0;
#X connect 41 1 21 0;
#X connect 46 0 45 0;
#X connect 46 0 31 0;
#X restore 94 95 pd arduino;
#X obj 94 69 tgl 15 0 empty empty buzz 20 7 0 10 -262144 -1 -1 0 1
;
#X obj 97 224 hsl 128 15 0 1 0 0 empty empty piezo_signal -2 -8 0 10
-4032 -1 -1 0 1;
#X obj 575 51 loadbang;
#X text 659 202 broadcast to multicast IP address;
#X obj 651 274 mrpeach/udpsend;
#X obj 538 242 mrpeach/packOSC;
#X msg 74 336 send /piezo \$1;
#X obj 567 94 bng 15 250 50 0 empty empty empty 17 7 0 10 -262144 -1
-1;
#X obj 74 300 f;
#X msg 657 113 \; pd dsp 1;
#X obj 222 144 jerk;
#X obj 300 31 hsl 128 15 0 1 0 0 empty empty x-accel -2 -8 0 10 -4032
-1 -1 7585 1;
#X obj 299 62 hsl 128 15 0 1 0 0 empty empty y-accel -2 -8 0 10 -4032
-1 -1 4767 1;
#X obj 299 93 hsl 128 15 0 1 0 0 empty empty z-accel -2 -8 0 10 -4032
-1 -1 4506 1;
#X obj 266 257 f;
#X obj 266 294 pack f f f;
#X obj 510 311 print;
#X obj 243 179 bng 15 250 50 0 empty empty empty 17 7 0 10 -262144
-1 -1;
#X text 507 339 print all OSC messages;
#X obj 171 390 s osc;
#X obj 511 215 r osc;
#X text 654 144 turn DSP on;
#X msg 266 335 send /accel \$1 \$2 \$3;
#X msg 171 336 send /jerk 1;
#X obj 470 119 delay 5000;
#X msg 651 181 connect 224.0.0.1 57120;
#X obj 142 19 delay 500;
#X text 299 187 comment;
#X floatatom 702 504 20 0 0 0 - - -;
#X obj 431 477 +;
#X obj 371 390 spigot;
#X obj 226 451 tgl 15 0 empty empty empty 17 7 0 10 -262144 -1 -1 0
1;
#X obj 315 517 spigot;
#X obj 500 646 hsl 128 15 0 1 0 0 empty empty empty -2 -8 0 10 -4032
-1 -1 2857 1;
#X msg 522 430 0;
#X obj 317 646 expr $f2 - $f1;
#X obj 243 587 tgl 15 0 empty empty empty 17 7 0 10 -262144 -1 -1 1
1;
#X obj 181 510 == 0;
#X text 94 657 magic ratio:;
#X msg 764 638 0;
#X obj 535 612 / 1000;
#X msg 383 703 send /ioi \$1;
#X obj 491 670 expr 1 - $f1;
#X obj 100 519 metro 100;
#X msg 118 567 1;
#X floatatom 702 415 5 0 0 0 - - -;
#X obj 700 444 max 0;
#X obj 700 470 min 1000;
#X obj 435 434 * 5;
#X obj 348 573 * 2;
#X obj 471 143 metro 200;
#X msg 112 38 0;
#X msg 38 83 1;
#X connect 0 0 2 0;
#X connect 0 1 12 0;
#X connect 0 2 13 0;
#X connect 0 3 14 0;
#X connect 1 0 0 0;
#X connect 2 0 9 1;
#X connect 3 0 8 0;
#X connect 6 0 5 0;
#X connect 7 0 20 0;
#X connect 8 0 10 0;
#X connect 8 0 25 0;
#X connect 8 0 26 0;
#X connect 11 0 32 0;
#X connect 11 1 18 0;
#X connect 12 0 11 0;
#X connect 12 0 15 1;
#X connect 13 0 11 1;
#X connect 13 0 16 1;
#X connect 14 0 11 1;
#X connect 14 0 16 2;
#X connect 15 0 16 0;
#X connect 16 0 23 0;
#X connect 18 0 24 0;
#X connect 18 0 27 0;
#X connect 18 0 53 0;
#X connect 21 0 17 0;
#X connect 21 0 6 0;
#X connect 23 0 20 0;
#X connect 24 0 20 0;
#X connect 25 0 51 0;
#X connect 25 0 44 0;
#X connect 26 0 5 0;
#X connect 27 0 52 0;
#X connect 29 0 30 1;
#X connect 29 0 36 1;
#X connect 29 0 41 0;
#X connect 30 0 46 0;
#X connect 31 0 49 0;
#X connect 32 0 31 1;
#X connect 32 0 38 0;
#X connect 33 0 50 0;
#X connect 34 0 43 0;
#X connect 35 0 29 0;
#X connect 36 0 46 0;
#X connect 37 0 33 1;
#X connect 38 0 37 0;
#X connect 40 0 32 0;
#X connect 41 0 34 0;
#X connect 42 0 20 0;
#X connect 43 0 42 0;
#X connect 44 0 45 0;
#X connect 45 0 33 0;
#X connect 45 0 31 0;
#X connect 46 0 47 0;
#X connect 47 0 48 0;
#X connect 48 0 29 0;
#X connect 49 0 30 0;
#X connect 50 0 36 0;
#X connect 51 0 9 0;
#X connect 51 0 15 0;
#X connect 52 0 1 0;
#X connect 53 0 1 0;
