#N canvas 221 0 1219 822 10;
#X text 244 173 x;
#X text 291 171 y;
#X obj 429 229 bng 15 250 50 0 empty empty empty 0 -6 0 8 -262144 -1
-1;
#X text 373 470 y;
#X text 419 470 z;
#X obj 299 389 snapshot~;
#X obj 377 391 snapshot~;
#X obj 444 391 snapshot~;
#X obj 27 389 snapshot~;
#X obj 107 389 snapshot~;
#X obj 201 391 snapshot~;
#X obj 35 293 metro 20;
#X obj 60 32 loadbang;
#X obj 385 367 delay 1;
#X obj 308 363 delay 2;
#X obj 124 368 delay 4;
#X floatatom 43 431 5 0 0 0 - - -;
#X floatatom 94 432 5 0 0 0 - - -;
#X floatatom 141 433 5 0 0 0 - - -;
#X text 15 514 (jerk \, impact \, etc): highpass part;
#X text 21 497 Sudden changes in acceleration;
#X text 55 476 x;
#X text 103 476 y;
#X text 149 476 z;
#X text 310 487 tilt (lowpass part);
#X obj 201 367 delay 3;
#X obj 42 368 delay 5;
#X floatatom 49 193 5 0 0 0 - - -;
#X floatatom 114 192 5 0 0 0 - - -;
#X text 39 175 LF cutoff;
#X text 103 175 HF cutoff;
#X obj 106 293 accel-xover 3 10;
#X obj 224 292 accel-xover 3 10;
#X obj 335 290 accel-xover 3 10;
#X floatatom 231 192 5 0 0 0 - - -;
#X floatatom 274 191 5 0 0 0 - - -;
#X floatatom 319 191 5 0 0 0 - - -;
#X text 42 159 xover frequencies;
#X floatatom 307 429 5 0 0 0 - - -;
#X floatatom 358 430 5 0 0 0 - - -;
#X floatatom 405 431 5 0 0 0 - - -;
#X obj 640 140 vsl 15 250 -100 100 0 0 empty empty empty 0 -8 0 8 -262144
-1 -1 20125 1;
#X text 642 393 X;
#X floatatom 640 407 6 0 0 0 - - -;
#X text 667 257 -0-;
#X obj 306 457 s xtilt;
#X obj 639 93 r xtilt;
#X obj 638 115 * 100;
#X text 332 173 z;
#X obj 692 140 vsl 15 250 -100 100 0 0 empty empty empty 0 -8 0 8 -262144
-1 -1 17309 1;
#X floatatom 692 407 6 0 0 0 - - -;
#X text 719 257 -0-;
#X obj 690 115 * 100;
#X obj 744 140 vsl 15 250 -100 100 0 0 empty empty empty 0 -8 0 8 -262144
-1 -1 12450 1;
#X floatatom 744 407 6 0 0 0 - - -;
#X text 771 257 -0-;
#X obj 742 115 * 100;
#X obj 691 93 r ytilt;
#X obj 743 93 r ztilt;
#X obj 357 457 s ytilt;
#X obj 406 456 s ztilt;
#X text 694 393 Y;
#X text 746 393 Z;
#X obj 838 140 vsl 15 250 -100 100 0 0 empty empty empty 0 -8 0 8 -262144
-1 -1 12448 1;
#X text 840 393 X;
#X floatatom 838 407 6 0 0 0 - - -;
#X text 865 257 -0-;
#X obj 836 115 * 100;
#X obj 890 140 vsl 15 250 -100 100 0 0 empty empty empty 0 -8 0 8 -262144
-1 -1 12446 1;
#X floatatom 890 407 6 0 0 0 - - -;
#X text 917 257 -0-;
#X obj 888 115 * 100;
#X obj 942 140 vsl 15 250 -100 100 0 0 empty empty empty 0 -8 0 8 -262144
-1 -1 12450 1;
#X floatatom 942 407 6 0 0 0 - - -;
#X text 969 257 -0-;
#X obj 940 115 * 100;
#X text 892 393 Y;
#X text 944 393 Z;
#X obj 43 461 s xjrk;
#X obj 94 461 s yjrk;
#X obj 141 462 s zjrk;
#X obj 837 93 r xjrk;
#X obj 889 93 r yjrk;
#X obj 941 94 r zjrk;
#X text 884 433 JERK;
#X text 686 433 TILT;
#X msg 46 96 3;
#X msg 93 98 10;
#X obj 63 64 bng 15 250 50 0 empty empty empty 17 7 0 10 -262144 -1
-1;
#X obj 229 81 inlet;
#X obj 282 80 inlet;
#X obj 336 83 inlet;
#X obj 839 495 *;
#X obj 878 490 *;
#X obj 928 478 *;
#X obj 867 538 +;
#X obj 923 549 +;
#X obj 893 581 sqrt;
#X floatatom 889 618 5 0 0 0 - - -;
#X obj 863 683 tgl 15 0 empty empty empty 17 7 0 10 -262144 -1 -1 0
1;
#X obj 855 710 metro 1;
#X obj 777 702 bng 15 250 50 0 empty empty empty 17 7 0 10 -262144
-1 -1;
#X obj 892 783 tgl 15 0 empty empty empty 17 7 0 10 -262144 -1 -1 1
1;
#X obj 702 781 bng 15 250 50 0 empty empty empty 17 7 0 10 -262144
-1 -1;
#X obj 725 739 spigot;
#X obj 1010 767 outlet;
#X text 455 228 bang me to calibrate;
#X obj 992 706 delay 500;
#N canvas 0 0 297 317 rms 0;
#X obj 52 53 inlet;
#X obj 137 64 inlet;
#X obj 211 32 inlet;
#X obj 111 264 outlet;
#X obj 113 114 *;
#X obj 152 109 *;
#X obj 202 97 *;
#X obj 141 157 +;
#X obj 197 168 +;
#X obj 167 200 sqrt;
#X connect 0 0 4 0;
#X connect 0 0 4 1;
#X connect 1 0 5 0;
#X connect 1 0 5 1;
#X connect 2 0 6 0;
#X connect 2 0 6 1;
#X connect 4 0 7 0;
#X connect 5 0 7 1;
#X connect 6 0 8 1;
#X connect 7 0 8 0;
#X connect 8 0 9 0;
#X connect 9 0 3 0;
#X restore 993 550 pd rms;
#X obj 534 678 > 0.1;
#X obj 516 720 tgl 15 0 empty empty empty 17 7 0 10 -262144 -1 -1 0
1;
#X obj 517 761 outlet;
#X obj 863 648 > 1.1;
#X connect 2 0 31 3;
#X connect 2 0 32 3;
#X connect 2 0 33 3;
#X connect 5 0 38 0;
#X connect 6 0 39 0;
#X connect 7 0 40 0;
#X connect 8 0 16 0;
#X connect 9 0 17 0;
#X connect 10 0 18 0;
#X connect 11 0 7 0;
#X connect 11 0 13 0;
#X connect 11 0 14 0;
#X connect 11 0 15 0;
#X connect 11 0 25 0;
#X connect 11 0 26 0;
#X connect 12 0 88 0;
#X connect 13 0 6 0;
#X connect 14 0 5 0;
#X connect 15 0 9 0;
#X connect 16 0 78 0;
#X connect 17 0 79 0;
#X connect 18 0 80 0;
#X connect 25 0 10 0;
#X connect 26 0 8 0;
#X connect 27 0 31 1;
#X connect 27 0 32 1;
#X connect 27 0 33 1;
#X connect 28 0 31 2;
#X connect 28 0 32 2;
#X connect 28 0 33 2;
#X connect 31 0 8 0;
#X connect 31 1 5 0;
#X connect 32 0 9 0;
#X connect 32 1 6 0;
#X connect 33 0 10 0;
#X connect 33 1 7 0;
#X connect 34 0 31 0;
#X connect 35 0 32 0;
#X connect 36 0 33 0;
#X connect 38 0 45 0;
#X connect 39 0 59 0;
#X connect 40 0 60 0;
#X connect 41 0 43 0;
#X connect 46 0 47 0;
#X connect 47 0 41 0;
#X connect 49 0 50 0;
#X connect 52 0 49 0;
#X connect 53 0 54 0;
#X connect 56 0 53 0;
#X connect 57 0 52 0;
#X connect 58 0 56 0;
#X connect 63 0 65 0;
#X connect 65 0 92 0;
#X connect 65 0 92 1;
#X connect 65 0 108 0;
#X connect 67 0 63 0;
#X connect 68 0 69 0;
#X connect 69 0 93 0;
#X connect 69 0 93 1;
#X connect 69 0 108 1;
#X connect 71 0 68 0;
#X connect 72 0 73 0;
#X connect 73 0 94 0;
#X connect 73 0 94 1;
#X connect 73 0 108 2;
#X connect 75 0 72 0;
#X connect 81 0 67 0;
#X connect 82 0 71 0;
#X connect 83 0 75 0;
#X connect 86 0 27 0;
#X connect 87 0 28 0;
#X connect 88 0 86 0;
#X connect 88 0 87 0;
#X connect 88 0 11 0;
#X connect 88 0 102 0;
#X connect 88 0 2 0;
#X connect 89 0 34 0;
#X connect 90 0 35 0;
#X connect 91 0 36 0;
#X connect 92 0 95 0;
#X connect 93 0 95 1;
#X connect 94 0 96 1;
#X connect 95 0 96 0;
#X connect 96 0 97 0;
#X connect 98 0 109 0;
#X connect 98 0 112 0;
#X connect 99 0 100 0;
#X connect 100 0 101 0;
#X connect 101 0 104 0;
#X connect 102 0 104 1;
#X connect 103 0 102 0;
#X connect 103 0 105 0;
#X connect 103 0 107 0;
#X connect 104 0 103 0;
#X connect 107 0 102 0;
#X connect 108 0 98 0;
#X connect 109 0 110 0;
#X connect 110 0 111 0;
#X connect 112 0 99 0;
