#N canvas 0 92 1645 808 10;
#X obj 854 294 mrpeach/udpsend;
#X obj 854 244 mrpeach/packOSC;
#X obj 17 -85 hsl 512 64 2 127 0 0 empty empty radius -2 -8 0 10 -262144
-1 -1 0 1;
#X msg 874 -25 send /radius \$1;
#X obj 682 -8 int;
#X obj 904 -156 pack f f f;
#X obj 907 -266 hsl 128 15 0 127 0 0 empty empty red -2 -8 0 10 -262144
-258113 -1 0 1;
#X obj 907 -226 hsl 128 15 0 127 0 0 empty empty green -2 -8 0 10 -262144
-4034 -1 12700 1;
#X obj 907 -186 hsl 128 15 0 127 0 0 empty empty blue -2 -8 0 10 -262144
-4160 -45076 0 1;
#X msg 874 -126 send /rgb \$1 \$2 \$3;
#X obj 874 -154 bng 15 250 50 0 empty empty empty 17 7 0 10 -262144
-1 -1;
#X obj 17 15 hsl 512 64 0 127 0 0 empty empty intensity -2 -8 0 10
-262144 -1 -1 0 1;
#X msg 874 75 send /intensity \$1;
#X msg 874 174 send /mode \$1;
#X obj 14 115 tgl 64 0 empty empty mode 0 -8 0 10 -262144 -1 -1 0 1
;
#X obj 682 -110 unpack f f f;
#X msg 692 -250 127 0 0;
#X msg 692 -230 0 127 0;
#X msg 692 -210 0 0 127;
#X msg 692 -190 127 127 0;
#X msg 692 -169 0 127 127;
#X msg 692 -150 127 127 127;
#X obj 104 -275 bng 64 250 50 0 empty empty empty 17 7 0 10 -258113
-1 -1;
#X obj 104 -185 bng 64 250 50 0 empty empty empty 17 7 0 10 -4160 -1
-1;
#X obj 194 -275 bng 64 250 50 0 empty empty empty 17 7 0 10 -4034 -1
-1;
#X obj 284 -275 bng 64 250 50 0 empty empty empty 17 7 0 10 -257985
-1 -1;
#X obj 194 -185 bng 64 250 50 0 empty empty empty 17 7 0 10 -4032 -1
-1;
#X obj 14 -275 bng 64 250 50 0 empty empty empty 17 7 0 10 -262144
-1 -1;
#X obj 684 213 loadbang;
#X obj 14 -185 bng 64 250 50 0 empty empty empty 17 7 0 10 -1 -1 -1
;
#X msg 692 -270 0 0 0;
#X msg 692 -130 127 0 127;
#X msg 684 244 connect 127.0.0.1 57121;
#X connect 1 0 0 0;
#X connect 2 0 4 0;
#X connect 3 0 1 0;
#X connect 4 0 3 0;
#X connect 5 0 9 0;
#X connect 6 0 5 0;
#X connect 7 0 5 1;
#X connect 7 0 10 0;
#X connect 8 0 5 2;
#X connect 8 0 10 0;
#X connect 9 0 1 0;
#X connect 10 0 5 0;
#X connect 11 0 12 0;
#X connect 12 0 1 0;
#X connect 13 0 1 0;
#X connect 14 0 13 0;
#X connect 15 0 6 0;
#X connect 15 1 7 0;
#X connect 15 2 8 0;
#X connect 16 0 15 0;
#X connect 17 0 15 0;
#X connect 18 0 15 0;
#X connect 19 0 15 0;
#X connect 20 0 15 0;
#X connect 21 0 15 0;
#X connect 22 0 16 0;
#X connect 23 0 18 0;
#X connect 24 0 17 0;
#X connect 25 0 19 0;
#X connect 26 0 20 0;
#X connect 27 0 21 0;
#X connect 28 0 32 0;
#X connect 29 0 30 0;
#X connect 30 0 15 0;
#X connect 31 0 15 0;
#X connect 32 0 0 0;
